# xmcd
#
# Track frame offsets: 
#        150
#        21797
#        42322
#        62467
#        82662
#        101165
#        120920
#        141250
#        158202
#        181282
#        203682
#        223237
#        237715
#
# Disc length: 3398 seconds
#
# Revision: 2
# Processed by: cddbd v1.5.2PL0 Copyright (c) Steve Scherf et al.
# Submitted via: ExactAudioCopy v1.3
#
DISCID=af0d440d
DTITLE=Keiko Matsui - Wildflower
DYEAR=2004
DGENRE=Jazz
TTITLE0=Flashback
TTITLE1=Facing Up
TTITLE2=Sense Of A Journey
TTITLE3=Brand New Wind
TTITLE4=Eldest Of All
TTITLE5=Reflections
TTITLE6=White Castle
TTITLE7=Temple Of Life
TTITLE8=Seeker
TTITLE9=Stone Circle
TTITLE10=Wildflower
TTITLE11=Facing Up -solo piano- (Bonus Track)
TTITLE12=White Castle -solo piano- (Bonus Track)
EXTD=YEAR: 2003
EXTT0=
EXTT1=
EXTT2=
EXTT3=
EXTT4=
EXTT5=
EXTT6=
EXTT7=
EXTT8=
EXTT9=
EXTT10=
EXTT11=
EXTT12=
PLAYORDER=
